<svg xmlns="http://www.w3.org/2000/svg" viewBox="0 0 100 100">
  <style type="text/css">.cls-0 {fill:#385546;}
.cls-1 {fill:#869978;}</style>
  <path class="cls-0" d="m82.8 93.3v-6.3c-0.3-12.3-6.3-21.1-13.7-28.7-2-2.1-4-3.9-6.2-6.1-1.1-1.1-2.1-2.4-2.1-3.9 0-1.4 0.9-2.6 2.1-3.7 1.7-1.7 3.6-3.2 5.3-4.9 7.3-6.9 14.4-15.3 14.7-28.1v-5.1c1.2-0.6 2.2-1.7 2.2-3.2v-0.9c0-1.4-0.8-2.4-2.1-2.4h-65.6c-1.3 0-2.5 1-2.5 2.5v0.9c0 1.2 0.9 2.5 2.2 3.1v4.3c0.1 11.1 5.3 18.9 11.4 25.4 2 2.2 4.1 4.2 6.2 6 1.8 1.7 4.5 3.6 4.5 6 0 1.3-0.7 2.5-1.8 3.6-1.7 1.7-3.5 3.3-5.3 5-7.1 6.9-14.6 16.1-15 30.2v6.3c-1.2 0.7-2.2 1.9-2.2 3.3v1.3c0 1.2 1 2.2 2.2 2.2h65.4c1.3 0 2.6-1 2.6-2.4v-1.1c0-1.3-0.9-2.7-2.3-3.3zm-6-0.8h-24.1l-0.2-2.7 4.6-4.3-2.3-2.1-2.8 2.5-0.3-10.8-3.7 0.6-0.2 10.1-2.6-2.5-2.3 2.3 4.3 4.2-0.1 2.7h-24c-0.1-2-0.1-4 0-6.9 0.5-7.1 3.5-13.1 7.8-18.6 2.6-3.2 5.5-6 8.5-8.7 2.8-2.5 5.6-5.2 5.6-10 0-3.6-2.3-6.2-4.4-8.2-5.9-5.7-11.2-10.4-14.7-17.3-1.7-3.4-2.9-7.3-2.8-12.6l0.1-2.8h53.6c0.1 3.2 0.3 7.3-1.3 11.8-2.6 7.4-8.6 13.1-15.1 19.1-2.5 2.3-5.6 5-5.5 10 0.2 4.8 3.2 7.3 5.7 9.6 4.9 4.5 9.3 9.1 12.8 15.2 2.1 3.9 3.7 9 3.5 15 0 1.6 0 3.3-0.1 4.4z"/>
  <path class="cls-1" d="m31.2 22.1c-0.3 0-0.7 0.4-0.3 0.9 3 5.1 7.9 9.1 11.7 12.7 2.3 2.1 4.8 4.9 7 7.4 0.3 0.4 0.6 0.4 0.8 0.2 2-1.9 4-4.2 6.2-6.3 4-3.7 10-8.9 12.5-14.1 0.3-0.4-0.1-0.8-0.3-0.8h-37.6z"/>
  <path class="cls-1" d="m50.1 55.5c-0.5 0-4.9 5-5.4 9.5-0.6 5.6 2.5 10.1 5.3 12.5 2.4-1.9 4.9-4.6 5.1-10 0-5.4-3.1-9-4.7-11.3l-0.3-0.3v-0.4z"/>
  <path class="cls-1" d="m45.1 85.5c0.1-2.9 0-6-2.7-9.1-3.2-3.5-8-4-11-3.6-0.3 0-0.5 0-0.4 0.9 0.1 3.5 2 11.4 11.2 11.9h2.9v-0.1z"/>
  <path class="cls-1" d="m54.7 85.1c-0.1-2.9 0.3-6.1 2.9-8.7 3-3.3 8-4 11-3.6 0.4 0 0.3 0.3 0.3 0.9-0.1 3.2-1.5 11.8-11.9 11.9h-2.1l-0.2-0.1z"/>
</svg>
